HIERARCHY
ROOT joint_Root
{
  OFFSET 0 0 0
  CHANNELS 6 Xposition Yposition Zposition Zrotation Xrotation Yrotation
  JOINT Hips
  {
    OFFSET 0.847027 93.984 -452.225
    CHANNELS 6 Xposition Yposition Zposition Zrotation Xrotation Yrotation
    JOINT Spine
    {
      OFFSET 15.7357 0 0
      CHANNELS 6 Xposition Yposition Zposition Zrotation Xrotation Yrotation
      JOINT Chest
      {
        OFFSET 8.98455 -0.406207 0
        CHANNELS 6 Xposition Yposition Zposition Zrotation Xrotation Yrotation
        JOINT Neck
        {
          OFFSET 16.3773 0 0
          CHANNELS 6 Xposition Yposition Zposition Zrotation Xrotation Yrotation
          JOINT Head
          {
            OFFSET 6.45672 0 0
            CHANNELS 6 Xposition Yposition Zposition Zrotation Xrotation Yrotation
            End Site
            {
              OFFSET 0 0 0
            }
          }
        }
        JOINT Shoulder_L
        {
          OFFSET 12.9942 -0.242716 4.98039
          CHANNELS 6 Xposition Yposition Zposition Zrotation Xrotation Yrotation
          JOINT UpperArm_L
          {
            OFFSET 5.34809 0 0
            CHANNELS 6 Xposition Yposition Zposition Zrotation Xrotation Yrotation
            JOINT LowerArm_L
            {
              OFFSET 24.3286 1.87007e-05 0
              CHANNELS 6 Xposition Yposition Zposition Zrotation Xrotation Yrotation
              JOINT Hand_L
              {
                OFFSET 22.2916 0 0
                CHANNELS 6 Xposition Yposition Zposition Zrotation Xrotation Yrotation
                End Site
                {
                  OFFSET 0 0 0
                }
              }
            }
          }
        }
        JOINT Shoulder_R
        {
          OFFSET 12.9945 -0.242716 -4.98039
          CHANNELS 6 Xposition Yposition Zposition Zrotation Xrotation Yrotation
          JOINT UpperArm_R
          {
            OFFSET -5.34813 0 0
            CHANNELS 6 Xposition Yposition Zposition Zrotation Xrotation Yrotation
            JOINT LowerArm_R
            {
              OFFSET -24.3289 0.000322201 0
              CHANNELS 6 Xposition Yposition Zposition Zrotation Xrotation Yrotation
              JOINT Hand_R
              {
                OFFSET -22.2915 -0.000108084 0
                CHANNELS 6 Xposition Yposition Zposition Zrotation Xrotation Yrotation
                End Site
                {
                  OFFSET 0 0 0
                }
              }
            }
          }
        }
      }
    }
    JOINT UpperLeg_L
    {
      OFFSET -2.19248 -6.46944 0
      CHANNELS 6 Xposition Yposition Zposition Zrotation Xrotation Yrotation
      JOINT LowerLeg_L
      {
        OFFSET 39.0811 0 -1.23785e-05
        CHANNELS 6 Xposition Yposition Zposition Zrotation Xrotation Yrotation
        JOINT Foot_L
        {
          OFFSET 40.9854 0 -1.26872e-05
          CHANNELS 6 Xposition Yposition Zposition Zrotation Xrotation Yrotation
          JOINT Toes_L
          {
            OFFSET 11.7543 0 0
            CHANNELS 6 Xposition Yposition Zposition Zrotation Xrotation Yrotation
            End Site
            {
              OFFSET 0 0 0
            }
          }
        }
      }
    }
    JOINT UpperLeg_R
    {
      OFFSET -2.19251 6.46944 0
      CHANNELS 6 Xposition Yposition Zposition Zrotation Xrotation Yrotation
      JOINT LowerLeg_R
      {
        OFFSET -39.0811 -0.00228153 -0.0401928
        CHANNELS 6 Xposition Yposition Zposition Zrotation Xrotation Yrotation
        JOINT Foot_R
        {
          OFFSET -40.9854 0 0
          CHANNELS 6 Xposition Yposition Zposition Zrotation Xrotation Yrotation
          JOINT Toes_R
          {
            OFFSET -11.7543 0 0
            CHANNELS 6 Xposition Yposition Zposition Zrotation Xrotation Yrotation
            End Site
            {
              OFFSET 0 0 0
            }
          }
        }
      }
    }
  }
}
MOTION
Frames:	4
Frame Time:	0.0333333
0 0 0 0 0 -0 2.6957 91.4536 -381.263 90.5762 -1.209 0.855848 15.7357 5.1072e-06 -5.51765e-07 90.4793 83.0802 -87.9519 8.98455 -0.406207 -4.3199e-07 6.07631 0.0783041 5.04494 16.3773 -1.3905e-06 -6.99897e-07 -2.58182 -1.57295 -0.224282 6.45672 -1.25837e-06 -1.02172e-07 0.674768 -0.84619 -4.82215 12.9942 -0.242716 4.98039 -91.1083 4.49394 -91.1302 5.34809 -7.22636e-06 -6.2814e-07 -59.4536 14.7585 6.10902 24.3286 1.87007e-05 4.90208e-06 3.23123 2.81673 -48.9513 22.2916 -9.88446e-07 4.63217e-06 11.1588 5.56561 -9.46683 12.9945 -0.242716 -4.98039 87.5423 8.26107 -88.3689 -5.34813 -1.25947e-06 -3.79883e-06 -56.1724 12.7229 8.16691 -24.3289 0.000322201 -8.65921e-06 1.20501 1.61331 -36.7947 -22.2915 -0.000108084 -4.47941e-06 -2.85931 5.57423 -9.90734 -2.19248 -6.46944 -1.22534e-07 -173.247 -5.86684 -20.2318 39.0811 -6.73843e-06 -1.23785e-05 0.39323 -0.113684 74.5263 40.9854 -6.48686e-06 -1.26872e-05 -5.95899 5.83897 -36.0458 11.7543 -2.30145e-07 3.05095e-06 0.179598 -0.307176 -21.9256 -2.19251 6.46944 -1.45247e-06 179.655 22.4604 167.959 -39.0811 -0.00228153 -0.0401928 0.146271 -0.217523 28.9772 -40.9854 7.72618e-06 5.99936e-06 3.09398 6.01712 -66.8375 -11.7543 -5.6619e-06 -5.58687e-06 -0.0722632 0.0483997 -16.5722 
0 0 0 0 0 -0 2.74677 92.357 -377.173 92.2551 -5.17831 0.87224 15.7357 5.1072e-06 -5.51765e-07 100.154 83.1368 -98.9866 8.98455 -0.406207 -4.3199e-07 5.72598 2.39301 2.21176 16.3773 -1.3905e-06 -6.99897e-07 -1.98786 -0.910304 -0.203264 6.45672 -1.25837e-06 -1.02172e-07 0.639478 -1.26816 -4.08425 12.9942 -0.242716 4.98039 -91.1297 4.04064 -89.3631 5.34809 -7.22636e-06 -6.2814e-07 -61.2424 12.2789 10.8183 24.3286 1.87007e-05 4.90208e-06 0.143129 0.131213 -47.3404 22.2916 -9.88446e-07 4.63217e-06 10.5 5.56322 -9.34489 12.9945 -0.242716 -4.98039 88.1592 6.89345 -90.0112 -5.34813 -1.25947e-06 -3.79883e-06 -56.4899 12.9274 1.12826 -24.3289 0.000322201 -8.65921e-06 1.59592 2.18363 -36.1931 -22.2915 -0.000108084 -4.47941e-06 -2.4677 5.56605 -9.48998 -2.19248 -6.46944 -1.22533e-07 -175.67 -10.417 -24.452 39.0811 -6.73843e-06 -1.23785e-05 0.409324 -0.139464 71.9195 40.9854 -6.48686e-06 -1.26872e-05 -6.71723 6.94561 -39.1526 11.7543 -2.30145e-07 3.05095e-06 0.176356 -0.300983 -21.8205 -2.19251 6.46944 -1.45247e-06 176.465 21.7979 173.671 -39.0811 -0.00228153 -0.0401928 0.072136 -0.121608 23.2302 -40.9854 7.72618e-06 5.99936e-06 2.52288 9.40577 -66.569 -11.7543 -5.6619e-06 -5.58687e-06 -0.00670862 0.00474073 -16.5737 
0 0 0 0 0 -0 2.71031 92.7657 -373.377 93.1779 -9.35204 0.226794 15.7357 5.1072e-06 -5.51765e-07 108.751 83.1284 -108.693 8.98455 -0.406207 -4.3199e-07 5.25782 4.40703 -0.0864084 16.3773 -1.3905e-06 -6.99897e-07 -1.76822 0.163464 -0.324624 6.45672 -1.25837e-06 -1.02172e-07 0.640925 -1.47553 -3.35455 12.9942 -0.242716 4.98039 -91.235 3.82364 -87.0862 5.34809 -7.22636e-06 -6.2814e-07 -61.8743 9.82405 15.1011 24.3286 1.87007e-05 4.90207e-06 -0.684726 -0.655421 -46.2523 22.2916 -9.88446e-07 4.63217e-06 10.343 5.56105 -9.23843 12.9945 -0.242716 -4.98039 88.6462 5.80425 -91.8485 -5.34813 -1.25947e-06 -3.79883e-06 -55.2561 13.9206 -6.55732 -24.3289 0.000322201 -8.65921e-06 1.3429 1.86609 -35.7736 -22.2915 -0.000108084 -4.47941e-06 -2.28703 5.55779 -9.07872 -2.19248 -6.46944 -1.22534e-07 -177.413 -14.5928 -28.7324 39.0811 -6.73843e-06 -1.23785e-05 0.391738 -0.17474 66.8632 40.9854 -6.48686e-06 -1.26872e-05 -7.18156 8.08659 -42.7062 11.7543 -2.30145e-07 3.05095e-06 0.166106 -0.281631 -21.4915 -2.19251 6.46944 -1.45247e-06 174.458 20.207 177.7 -39.0811 -0.00228153 -0.0401928 0.0429207 -0.0866884 18.2274 -40.9854 7.72618e-06 5.99936e-06 1.74751 12.0031 -66.294 -11.7543 -5.6619e-06 -5.58687e-06 -0.000804272 0.000599948 -16.5738 
0 0 0 0 0 -0 2.59687 92.6676 -369.824 93.3852 -12.7112 -0.61619 15.7357 5.1072e-06 -5.51765e-07 113.969 83.0313 -114.732 8.98455 -0.406207 -4.3199e-07 5.0274 5.66881 -1.77466 16.3773 -1.3905e-06 -6.99897e-07 -1.67457 1.31222 -0.639835 6.45672 -1.25837e-06 -1.02172e-07 0.0586338 -1.55285 -2.69101 12.9942 -0.242716 4.98039 -91.4093 3.84581 -84.8583 5.34809 -7.22636e-06 -6.2814e-07 -61.8399 7.22584 18.8396 24.3286 1.87007e-05 4.90208e-06 -0.259453 -0.257742 -45.167 22.2916 -9.88446e-07 4.63217e-06 11.0024 5.56622 -9.49506 12.9945 -0.242716 -4.98039 88.9677 5.12804 -93.6033 -5.34813 -1.25947e-06 -3.79883e-06 -51.9422 15.317 -14.9615 -24.3289 0.000322201 -8.65921e-06 1.16271 1.63126 -35.5145 -22.2915 -0.000108084 -4.47941e-06 -2.32567 5.54695 -8.56228 -2.19248 -6.46944 -1.22534e-07 -178.463 -17.2765 -32.4207 39.0811 -6.73843e-06 -1.23785e-05 0.319018 -0.198696 59.3521 40.9854 -6.48686e-06 -1.26872e-05 -6.43084 8.52229 -46.204 11.7543 -2.30145e-07 3.05095e-06 0.170443 -0.289795 -21.6305 -2.19251 6.46944 -1.45247e-06 173.211 18.6849 -179.523 -39.0811 -0.00228153 -0.0401928 0.0201108 -0.033342 15.052 -40.9854 7.72618e-06 5.99936e-06 0.929244 13.76 -66.76 -11.7543 -5.6619e-06 -5.58687e-06 0.0251984 -0.0281459 -16.8517 
